<svg width="20" height="20" viewBox="0 0 20 20" fill="none" xmlns="http://www.w3.org/2000/svg">
<path d="M13.5874 1.69066C13.9592 1.95941 14.0967 2.44691 13.928 2.87191L11.478 9.00004H15.9999C16.4217 9.00004 16.7967 9.26254 16.9405 9.65941C17.0842 10.0563 16.9624 10.5 16.6405 10.7688L7.64048 18.2688C7.28735 18.5625 6.78423 18.5782 6.41235 18.3094C6.04048 18.0407 5.90298 17.5532 6.07173 17.1282L8.52173 11H3.99985C3.57798 11 3.20298 10.7375 3.05923 10.3407C2.91548 9.94379 3.03735 9.50004 3.35923 9.23129L12.3592 1.73129C12.7124 1.43754 13.2155 1.42191 13.5874 1.69066Z" fill="black"/>
</svg>
