<svg width="20" height="20" viewBox="0 0 20 20" fill="none" xmlns="http://www.w3.org/2000/svg">
<path d="M9.9999 3C7.4749 3 5.45303 4.15 3.98115 5.51875C2.51865 6.87813 1.54053 8.5 1.0749 9.61563C0.971777 9.8625 0.971777 10.1375 1.0749 10.3844C1.54053 11.5 2.51865 13.125 3.98115 14.4812C5.45303 15.8469 7.4749 17 9.9999 17C12.5249 17 14.5468 15.85 16.0187 14.4812C17.4812 13.1219 18.4593 11.5 18.9249 10.3844C19.028 10.1375 19.028 9.8625 18.9249 9.61563C18.4593 8.5 17.4812 6.875 16.0187 5.51875C14.5468 4.15313 12.5249 3 9.9999 3ZM5.4999 10C5.4999 7.51562 7.51553 5.5 9.9999 5.5C12.4843 5.5 14.4999 7.51562 14.4999 10C14.4999 12.4844 12.4843 14.5 9.9999 14.5C7.51553 14.5 5.4999 12.4844 5.4999 10ZM9.9999 8C9.9999 9.10313 9.10303 10 7.9999 10C7.64053 10 7.30303 9.90625 7.00928 9.7375C6.97803 10.0781 7.00615 10.4281 7.0999 10.775C7.52803 12.375 9.1749 13.325 10.7749 12.8969C12.3749 12.4688 13.3249 10.8219 12.8968 9.22188C12.5155 7.79375 11.1624 6.88438 9.7374 7.00938C9.90303 7.3 9.9999 7.6375 9.9999 8Z" fill="black"/>
</svg>
