<svg width="20" height="20" viewBox="0 0 20 20" fill="none" xmlns="http://www.w3.org/2000/svg">
<path d="M4.01562 2C2.9125 2 2.01562 2.89688 2.01562 4V16C2.01562 17.1031 2.9125 18 4.01562 18H12.0156C13.1187 18 14.0156 17.1031 14.0156 16V13H16.4562L15.4875 13.9688C15.1938 14.2625 15.1938 14.7375 15.4875 15.0281C15.7812 15.3187 16.2563 15.3219 16.5469 15.0281L18.7969 12.7781C19.0906 12.4844 19.0906 12.0094 18.7969 11.7188L16.5469 9.46875C16.2531 9.175 15.7781 9.175 15.4875 9.46875C15.1969 9.7625 15.1938 10.2375 15.4875 10.5281L16.4562 11.4969H14.0156V7.325C14.0156 6.79375 13.8062 6.28438 13.4312 5.90938L10.1 2.58437C9.725 2.20937 9.21875 2 8.6875 2H4.01562ZM12.1875 7.5H9.26562C8.85 7.5 8.51562 7.16563 8.51562 6.75V3.82812L12.1875 7.5ZM8.01562 12.25C8.01562 11.8344 8.35 11.5 8.76562 11.5H12.0156V13H8.76562C8.35 13 8.01562 12.6656 8.01562 12.25Z" fill="black"/>
</svg>
