<svg width="20" height="20" viewBox="0 0 20 20" fill="none" xmlns="http://www.w3.org/2000/svg">
<path d="M4 2C2.89688 2 2 2.89688 2 4V16C2 17.1031 2.89688 18 4 18H6.5V14.5C6.5 13.3969 7.39687 12.5 8.5 12.5H14V7.32812C14 6.79688 13.7906 6.2875 13.4156 5.9125L10.0844 2.58437C9.70938 2.20937 9.20312 2 8.67188 2H4ZM12.1719 7.5H9.25C8.83437 7.5 8.5 7.16563 8.5 6.75V3.82812L12.1719 7.5ZM9.25 13.875C8.49062 13.875 7.875 14.4906 7.875 15.25V17.75C7.875 18.5094 8.49062 19.125 9.25 19.125H9.75C10.5094 19.125 11.125 18.5094 11.125 17.75V17.5C11.125 17.1562 10.8438 16.875 10.5 16.875C10.1562 16.875 9.875 17.1562 9.875 17.5V17.75C9.875 17.8188 9.81875 17.875 9.75 17.875H9.25C9.18125 17.875 9.125 17.8188 9.125 17.75V15.25C9.125 15.1812 9.18125 15.125 9.25 15.125H9.75C9.81875 15.125 9.875 15.1812 9.875 15.25V15.5C9.875 15.8438 10.1562 16.125 10.5 16.125C10.8438 16.125 11.125 15.8438 11.125 15.5V15.25C11.125 14.4906 10.5094 13.875 9.75 13.875H9.25ZM13.5 13.875C12.6031 13.875 11.875 14.6031 11.875 15.5C11.875 16.3969 12.6031 17.125 13.5 17.125C13.7063 17.125 13.875 17.2937 13.875 17.5C13.875 17.7063 13.7063 17.875 13.5 17.875H12.5C12.1562 17.875 11.875 18.1562 11.875 18.5C11.875 18.8438 12.1562 19.125 12.5 19.125H13.5C14.3969 19.125 15.125 18.3969 15.125 17.5C15.125 16.6031 14.3969 15.875 13.5 15.875C13.2937 15.875 13.125 15.7063 13.125 15.5C13.125 15.2937 13.2937 15.125 13.5 15.125H14.25C14.5938 15.125 14.875 14.8438 14.875 14.5C14.875 14.1562 14.5938 13.875 14.25 13.875H13.5ZM16.5 13.875C16.1562 13.875 15.875 14.1562 15.875 14.5V15.4875C15.875 16.5969 16.2031 17.6844 16.8188 18.6063L16.9781 18.8469C17.0938 19.0219 17.2906 19.125 17.4969 19.125C17.7031 19.125 17.9 19.0219 18.0156 18.8469L18.175 18.6063C18.7906 17.6813 19.1187 16.5969 19.1187 15.4875V14.5C19.1187 14.1562 18.8375 13.875 18.4937 13.875C18.15 13.875 17.8687 14.1562 17.8687 14.5V15.4875C17.8687 16.1 17.7406 16.7031 17.4937 17.2594C17.2469 16.7031 17.1187 16.1 17.1187 15.4875V14.5C17.1187 14.1562 16.8375 13.875 16.4937 13.875H16.5Z" fill="black"/>
</svg>
