<svg width="20" height="20" viewBox="0 0 20 20" fill="none" xmlns="http://www.w3.org/2000/svg">
<path d="M5.72178 4.29377C5.33115 3.90315 4.69678 3.90315 4.30615 4.29377C3.91553 4.6844 3.91553 5.31877 4.30615 5.7094L8.5999 10L4.30928 14.2938C3.91865 14.6844 3.91865 15.3188 4.30928 15.7094C4.6999 16.1 5.33428 16.1 5.7249 15.7094L10.0155 11.4156L14.3093 15.7063C14.6999 16.0969 15.3343 16.0969 15.7249 15.7063C16.1155 15.3156 16.1155 14.6813 15.7249 14.2906L11.4312 10L15.7218 5.70627C16.1124 5.31565 16.1124 4.68127 15.7218 4.29065C15.3312 3.90002 14.6968 3.90002 14.3062 4.29065L10.0155 8.5844L5.72178 4.29377Z" fill="black"/>
</svg>
