<svg width="20" height="20" viewBox="0 0 20 20" fill="none" xmlns="http://www.w3.org/2000/svg">
<path d="M7 2C7.55312 2 8 2.44687 8 3V4H12V3C12 2.44687 12.4469 2 13 2C13.5531 2 14 2.44687 14 3V4H15C16.1031 4 17 4.89687 17 6V15C17 16.1031 16.1031 17 15 17H5C3.89688 17 3 16.1031 3 15V6C3 4.89687 3.89688 4 5 4H6V3C6 2.44687 6.44688 2 7 2ZM12.1219 8.87813C11.8281 8.58438 11.3531 8.58438 11.0625 8.87813L10.0031 9.9375L8.94375 8.87813C8.65 8.58438 8.175 8.58438 7.88438 8.87813C7.59375 9.17188 7.59063 9.64687 7.88438 9.9375L8.94375 10.9969L7.88438 12.0562C7.59063 12.35 7.59063 12.825 7.88438 13.1156C8.17812 13.4062 8.65313 13.4094 8.94375 13.1156L10.0031 12.0562L11.0625 13.1156C11.3562 13.4094 11.8313 13.4094 12.1219 13.1156C12.4125 12.8219 12.4156 12.3469 12.1219 12.0562L11.0625 10.9969L12.1219 9.9375C12.4156 9.64375 12.4156 9.16875 12.1219 8.87813Z" fill="white"/>
</svg>
