<svg width="20" height="20" viewBox="0 0 20 20" fill="none" xmlns="http://www.w3.org/2000/svg">
<path d="M13 2C13.5531 2 14 2.44687 14 3V4H15C16.1031 4 17 4.89687 17 6V15C17 16.1031 16.1031 17 15 17H5C3.89688 17 3 16.1031 3 15V6C3 4.89687 3.89688 4 5 4H6V3C6 2.44687 6.44688 2 7 2C7.55312 2 8 2.44687 8 3V4H12V3C12 2.44687 12.4469 2 13 2ZM13.6875 7.05312C13.3531 6.80937 12.8844 6.88438 12.6406 7.21875L8.90938 12.35L7.28125 10.7219C6.9875 10.4281 6.5125 10.4281 6.22188 10.7219C5.93125 11.0156 5.92813 11.4906 6.22188 11.7812L8.47188 14.0312C8.62813 14.1875 8.84375 14.2656 9.05937 14.25C9.275 14.2344 9.47812 14.1219 9.60625 13.9438L13.8531 8.1C14.0969 7.76563 14.0219 7.29688 13.6875 7.05312Z" fill="white"/>
</svg>
