<svg width="20" height="20" viewBox="0 0 20 20" fill="none" xmlns="http://www.w3.org/2000/svg">
<path d="M5 3C3.89688 3 3 3.89688 3 5V15C3 16.1031 3.89688 17 5 17H15C16.1031 17 17 16.1031 17 15V7.41563C17 6.88438 16.7906 6.375 16.4156 6L14 3.58437C13.625 3.20937 13.1156 3 12.5844 3H5ZM6 6C6 5.44688 6.44688 5 7 5H12C12.5531 5 13 5.44688 13 6V8C13 8.55312 12.5531 9 12 9H7C6.44688 9 6 8.55312 6 8V6ZM10 11C11.1031 11 12 11.8969 12 13C12 14.1031 11.1031 15 10 15C8.89687 15 8 14.1031 8 13C8 11.8969 8.89687 11 10 11Z" fill="white"/>
</svg>
