<svg width="20" height="20" viewBox="0 0 20 20" fill="none" xmlns="http://www.w3.org/2000/svg">
<path d="M14.1094 5C13.5906 5 13.0875 5.14062 12.6469 5.39687C12.1531 4.89687 11.5781 4.47812 10.9438 4.1625C11.825 3.4125 12.9469 3 14.1094 3C16.8094 3 19 5.1875 19 7.89062C19 9.1875 18.4844 10.4313 17.5688 11.3469L15.3469 13.5688C14.4313 14.4844 13.1875 15 11.8906 15C9.19063 15 7 12.8125 7 10.1094C7 10.0625 7 10.0156 7.00313 9.96875C7.01875 9.41563 7.47813 8.98125 8.03125 8.99687C8.58437 9.0125 9.01875 9.47187 9.00313 10.025C9.00313 10.0531 9.00313 10.0812 9.00313 10.1062C9.00313 11.7031 10.2969 12.9969 11.8938 12.9969C12.6594 12.9969 13.3938 12.6937 13.9375 12.15L16.1594 9.92813C16.7 9.3875 17.0063 8.65 17.0063 7.88438C17.0063 6.2875 15.7125 4.99375 14.1156 4.99375L14.1094 5ZM9.6 7.41563C9.54063 7.39062 9.48125 7.35625 9.42813 7.31875C9.03438 7.11562 8.58438 7 8.1125 7C7.34688 7 6.6125 7.30313 6.06875 7.84688L3.84687 10.0688C3.30625 10.6094 3 11.3469 3 12.1125C3 13.7094 4.29375 15.0031 5.89062 15.0031C6.40625 15.0031 6.90937 14.8656 7.35 14.6094C7.84375 15.1094 8.41875 15.5281 9.05625 15.8438C8.175 16.5906 7.05625 17.0063 5.89062 17.0063C3.19062 17.0063 1 14.8188 1 12.1156C1 10.8188 1.51563 9.575 2.43125 8.65938L4.65312 6.4375C5.56875 5.52187 6.8125 5.00625 8.10938 5.00625C10.8156 5.00625 13 7.2125 13 9.90938C13 9.95 13 9.99062 13 10.0312C12.9875 10.5844 12.5281 11.0188 11.975 11.0063C11.4219 10.9938 10.9875 10.5344 11 9.98125C11 9.95625 11 9.93438 11 9.90938C11 8.85625 10.4375 7.93125 9.6 7.42188V7.41563Z" fill="white"/>
</svg>
