<svg width="20" height="20" viewBox="0 0 20 20" fill="none" xmlns="http://www.w3.org/2000/svg">
<path d="M10.5406 1.5937C10.1844 1.52183 9.81875 1.52183 9.4625 1.5937L3.60313 2.76558C3.25313 2.83433 3 3.1437 3 3.49995C3 3.82183 3.20312 4.10308 3.5 4.2062V6.49995L3.00938 8.9562C3.00313 8.98433 3 9.01558 3 9.04683C3 9.29683 3.20312 9.50308 3.45625 9.50308H4.54688C4.79688 9.50308 5.00313 9.29995 5.00313 9.04683C5.00313 9.01558 5 8.98745 4.99375 8.9562L4.5 6.49995V4.41558L6 4.71558V6.49995C6 8.70933 7.79063 10.5 10 10.5C12.2094 10.5 14 8.70933 14 6.49995V4.71558L16.3969 4.23745C16.7469 4.16558 17 3.8562 17 3.49995C17 3.1437 16.7469 2.83433 16.3969 2.76558L10.5406 1.5937ZM10 8.99995C8.61875 8.99995 7.5 7.8812 7.5 6.49995H12.5C12.5 7.8812 11.3813 8.99995 10 8.99995ZM6.75313 12.0031C4.83438 12.8843 3.5 14.8218 3.5 17.0718C3.5 17.5843 3.91562 18 4.42812 18H9.25V13.4375L7.45625 12.0937C7.25313 11.9406 6.98125 11.9 6.75 12.0062L6.75313 12.0031ZM10.75 18H15.5719C16.0844 18 16.5 17.5843 16.5 17.0718C16.5 14.8218 15.1656 12.8843 13.2469 12.0062C13.0156 11.9 12.7437 11.9406 12.5406 12.0937L10.7469 13.4375V18H10.75Z" fill="white"/>
</svg>
