<svg width="20" height="20" viewBox="0 0 20 20" fill="none" xmlns="http://www.w3.org/2000/svg">
<path d="M4.25 6C4.25 3.92812 5.92812 2.25 8 2.25C10.0719 2.25 11.75 3.92812 11.75 6C11.75 8.07188 10.0719 9.75 8 9.75C5.92812 9.75 4.25 8.07188 4.25 6ZM1.5 17.0719C1.5 13.9937 3.99375 11.5 7.07188 11.5H8.92813C12.0063 11.5 14.5 13.9937 14.5 17.0719C14.5 17.5844 14.0844 18 13.5719 18H2.42812C1.91562 18 1.5 17.5844 1.5 17.0719ZM17 5C17.4156 5 17.75 5.33437 17.75 5.75V7.25H19.25C19.6656 7.25 20 7.58437 20 8C20 8.41563 19.6656 8.75 19.25 8.75H17.75V10.25C17.75 10.6656 17.4156 11 17 11C16.5844 11 16.25 10.6656 16.25 10.25V8.75H14.75C14.3344 8.75 14 8.41563 14 8C14 7.58437 14.3344 7.25 14.75 7.25H16.25V5.75C16.25 5.33437 16.5844 5 17 5Z" fill="white"/>
</svg>
