<svg width="20" height="20" viewBox="0 0 20 20" fill="none" xmlns="http://www.w3.org/2000/svg">
<path d="M10 18C14.4187 18 18 14.4187 18 10C18 5.58125 14.4187 2 10 2C5.58125 2 2 5.58125 2 10C2 14.4187 5.58125 18 10 18ZM9.25 12.75V10.75H7.25C6.83437 10.75 6.5 10.4156 6.5 10C6.5 9.58437 6.83437 9.25 7.25 9.25H9.25V7.25C9.25 6.83437 9.58437 6.5 10 6.5C10.4156 6.5 10.75 6.83437 10.75 7.25V9.25H12.75C13.1656 9.25 13.5 9.58437 13.5 10C13.5 10.4156 13.1656 10.75 12.75 10.75H10.75V12.75C10.75 13.1656 10.4156 13.5 10 13.5C9.58437 13.5 9.25 13.1656 9.25 12.75Z" fill="white"/>
</svg>
