<svg width="20" height="20" viewBox="0 0 20 20" fill="none" xmlns="http://www.w3.org/2000/svg">
<path d="M12.5 13C15.5375 13 18 10.5375 18 7.5C18 4.4625 15.5375 2 12.5 2C9.4625 2 7 4.4625 7 7.5C7 8.08437 7.09063 8.65 7.25938 9.17813L2.21875 14.2188C2.07812 14.3594 2 14.55 2 14.75V17.25C2 17.6656 2.33437 18 2.75 18H5.25C5.66563 18 6 17.6656 6 17.25V16H7.25C7.66563 16 8 15.6656 8 15.25V14H9.25C9.45 14 9.64062 13.9219 9.78125 13.7812L10.8219 12.7406C11.35 12.9094 11.9156 13 12.5 13ZM13.75 5C14.4406 5 15 5.55938 15 6.25C15 6.94063 14.4406 7.5 13.75 7.5C13.0594 7.5 12.5 6.94063 12.5 6.25C12.5 5.55938 13.0594 5 13.75 5Z" fill="white"/>
</svg>
